<svg xmlns="http://www.w3.org/2000/svg" viewBox="0 0 512 512">
  <defs>
    <linearGradient id="bell" x1="0" y1="0" x2="1" y2="1">
      <stop offset="0%" stop-color="#6366f1"/>
      <stop offset="50%" stop-color="#8b5cf6"/>
      <stop offset="100%" stop-color="#06b6d4"/>
    </linearGradient>
    <linearGradient id="check" x1="0" y1="0" x2="1" y2="1">
      <stop offset="0%" stop-color="#f97316"/>
      <stop offset="100%" stop-color="#eab308"/>
    </linearGradient>
    <linearGradient id="bg" x1="0" y1="0" x2="1" y2="1">
      <stop offset="0%" stop-color="#1e1b4b"/>
      <stop offset="100%" stop-color="#0f172a"/>
    </linearGradient>
  </defs>
  <rect width="512" height="512" rx="96" fill="url(#bg)"/>
  <!-- Bell -->
  <path d="M256 100c-8 0-16 6-16 14v18c-52 10-90 56-90 110v60l-24 32c-4 5-1 14 6 14h248c7 0 10-9 6-14l-24-32v-60c0-54-38-100-90-110v-18c0-8-8-14-16-14zm-30 268c0 17 13 30 30 30s30-13 30-30z" fill="url(#bell)"/>
  <!-- Speed lines -->
  <rect x="68" y="210" width="48" height="10" rx="5" fill="#818cf8" opacity=".7"/>
  <rect x="56" y="240" width="60" height="10" rx="5" fill="#818cf8" opacity=".5"/>
  <rect x="68" y="270" width="48" height="10" rx="5" fill="#818cf8" opacity=".3"/>
  <!-- Checkmark -->
  <path d="M230 280l22 22 40-44" fill="none" stroke="url(#check)" stroke-width="18" stroke-linecap="round" stroke-linejoin="round"/>
</svg>
